<svg width="300" height="300" viewBox="0 0 300 300" xmlns="http://www.w3.org/2000/svg">
  <defs>
    <!-- Main gradient matching the actual app logo -->
    <linearGradient id="mainGradient" x1="0%" y1="0%" x2="100%" y2="100%">
      <stop offset="0%" style="stop-color:#00ffff;stop-opacity:1" />
      <stop offset="30%" style="stop-color:#00ff88;stop-opacity:1" />
      <stop offset="70%" style="stop-color:#44ff44;stop-opacity:1" />
      <stop offset="100%" style="stop-color:#88ff00;stop-opacity:1" />
    </linearGradient>
    
    <!-- Dark inner gradient for the inner shield -->
    <linearGradient id="innerGradient" x1="0%" y1="0%" x2="100%" y2="100%">
      <stop offset="0%" style="stop-color:#333;stop-opacity:1" />
      <stop offset="100%" style="stop-color:#111;stop-opacity:1" />
    </linearGradient>
    
    <!-- Text gradient -->
    <linearGradient id="textGradient" x1="0%" y1="0%" x2="100%" y2="0%">
      <stop offset="0%" style="stop-color:#00ffff;stop-opacity:1" />
      <stop offset="50%" style="stop-color:#00ff88;stop-opacity:1" />
      <stop offset="100%" style="stop-color:#88ff00;stop-opacity:1" />
    </linearGradient>
    
    <!-- Glow effect -->
    <filter id="glow" x="-50%" y="-50%" width="200%" height="200%">
      <feGaussianBlur stdDeviation="4" result="coloredBlur"/>
      <feMerge> 
        <feMergeNode in="coloredBlur"/>
        <feMergeNode in="SourceGraphic"/>
      </feMerge>
    </filter>
  </defs>
  
  <!-- Outer rounded shield shape like the app logo -->
  <path d="M 150 25 
           C 170 25, 200 35, 225 60
           C 245 80, 250 100, 250 130
           L 250 170
           C 250 200, 245 220, 225 240
           C 200 265, 170 275, 150 275
           C 130 275, 100 265, 75 240
           C 55 220, 50 200, 50 170
           L 50 130
           C 50 100, 55 80, 75 60
           C 100 35, 130 25, 150 25 Z" 
        fill="url(#mainGradient)" 
        filter="url(#glow)"/>
  
  <!-- Inner dark shield -->
  <path d="M 150 45 
           C 165 45, 185 50, 205 70
           C 220 85, 225 100, 225 120
           L 225 180
           C 225 200, 220 215, 205 230
           C 185 250, 165 255, 150 255
           C 135 255, 115 250, 95 230
           C 80 215, 75 200, 75 180
           L 75 120
           C 75 100, 80 85, 95 70
           C 115 50, 135 45, 150 45 Z" 
        fill="url(#innerGradient)" 
        stroke="rgba(0,255,255,0.2)" 
        stroke-width="1"/>
  
  <!-- Network connection lines in upper area -->
  <g stroke="url(#textGradient)" stroke-width="2" opacity="0.7" fill="none">
    <path d="M 110 90 Q 130 85 150 90 Q 170 85 190 90"/>
    <path d="M 115 100 Q 135 95 150 100 Q 165 95 185 100"/>
    <path d="M 120 110 Q 140 105 150 110 Q 160 105 180 110"/>
  </g>
  
  <!-- NEOCORE text at top like the app -->
  <text x="150" y="40" 
        font-family="Arial, sans-serif" 
        font-size="16" 
        font-weight="bold" 
        text-anchor="middle" 
        fill="url(#textGradient)"
        letter-spacing="2px">NEOCORE</text>
  
  <!-- Large DB text in center like the app -->
  <text x="150" y="175" 
        font-family="Arial, sans-serif" 
        font-size="52" 
        font-weight="bold" 
        text-anchor="middle" 
        fill="url(#textGradient)"
        filter="url(#glow)">DB</text>
  
  <!-- Bottom connection decorative lines -->
  <g stroke="url(#textGradient)" stroke-width="1.5" opacity="0.6">
    <line x1="120" y1="220" x2="135" y2="205"/>
    <line x1="150" y1="225" x2="150" y2="210"/>
    <line x1="180" y1="220" x2="165" y2="205"/>
    <circle cx="135" cy="205" r="2" fill="url(#textGradient)"/>
    <circle cx="150" cy="210" r="2" fill="url(#textGradient)"/>
    <circle cx="165" cy="205" r="2" fill="url(#textGradient)"/>
  </g>
</svg>